<svg width="1729" height="373" viewBox="0 0 1729 373" fill="none" xmlns="http://www.w3.org/2000/svg">
<g filter="url(#filter0_i_43_5)">
<path d="M219.385 93.1437L104.61 139.228L1.13556 179.745C0.330337 180.06 0.277844 181.18 1.05004 181.569L104.61 233.772L219.385 279.856L322.431 329.741L434.52 372.435C434.634 372.478 434.755 372.5 434.876 372.5H534.387H649.162H754.721H861.119H975.893H1084.8H1190.36H1293.22C1293.34 372.5 1293.47 372.477 1293.59 372.431L1402.32 329.741L1513.74 279.856L1620.14 233.772L1726.98 181.575C1727.76 181.191 1727.71 180.052 1726.89 179.742L1620.14 139.228L1513.74 93.1437L1402.51 45.2406C1402.38 45.1868 1402.3 45.1656 1402.17 45.1413C1397.65 44.3231 1328.34 15.2777 1293.59 0.576801C1293.47 0.524648 1293.34 0.5 1293.21 0.5H1190.36H1084.8H975.893H861.119H754.721H649.162H534.387H434.884C434.757 0.5 434.632 0.524034 434.514 0.570825L322.431 45.159L219.385 93.1437Z" fill="#B49B73"/>
</g>
<path d="M219.385 93.1437L104.61 139.228L1.13556 179.745C0.330337 180.06 0.277844 181.18 1.05004 181.569L104.61 233.772L219.385 279.856L322.431 329.741L434.52 372.435C434.634 372.478 434.755 372.5 434.876 372.5H534.387H649.162H754.721H861.119H975.893H1084.8H1190.36H1293.22C1293.34 372.5 1293.47 372.477 1293.59 372.431L1402.32 329.741L1513.74 279.856L1620.14 233.772L1726.98 181.575C1727.76 181.191 1727.71 180.052 1726.89 179.742L1620.14 139.228L1513.74 93.1437L1402.51 45.2406C1402.38 45.1868 1402.3 45.1656 1402.17 45.1413C1397.65 44.3231 1328.34 15.2777 1293.59 0.576801C1293.47 0.524648 1293.34 0.5 1293.21 0.5H1190.36H1084.8H975.893H861.119H754.721H649.162H534.387H434.884C434.757 0.5 434.632 0.524034 434.514 0.570825L322.431 45.159L219.385 93.1437Z" stroke="black"/>
<defs>
<filter id="filter0_i_43_5" x="0" y="0" width="1728.04" height="378" filterUnits="userSpaceOnUse" color-interpolation-filters="sRGB">
<feFlood flood-opacity="0" result="BackgroundImageFix"/>
<feBlend mode="normal" in="SourceGraphic" in2="BackgroundImageFix" result="shape"/>
<feColorMatrix in="SourceAlpha" type="matrix" values="0 0 0 0 0 0 0 0 0 0 0 0 0 0 0 0 0 0 127 0" result="hardAlpha"/>
<feOffset dy="5"/>
<feGaussianBlur stdDeviation="15"/>
<feComposite in2="hardAlpha" operator="arithmetic" k2="-1" k3="1"/>
<feColorMatrix type="matrix" values="0 0 0 0 0 0 0 0 0 0 0 0 0 0 0 0 0 0 0.25 0"/>
<feBlend mode="normal" in2="shape" result="effect1_innerShadow_43_5"/>
</filter>
</defs>
</svg>
